<svg width="19" height="19" viewBox="0 0 19 19" fill="none" xmlns="http://www.w3.org/2000/svg">
<path d="M9.5 18C11.1811 18 12.8245 17.5015 14.2223 16.5675C15.6202 15.6335 16.7096 14.306 17.353 12.7528C17.9963 11.1996 18.1646 9.49057 17.8367 7.84174C17.5087 6.1929 16.6991 4.67834 15.5104 3.4896C14.3217 2.30085 12.8071 1.4913 11.1583 1.16333C9.50943 0.835355 7.80036 1.00368 6.24719 1.64703C4.69402 2.29037 3.3665 3.37984 2.43251 4.77766C1.49852 6.17547 1 7.81886 1 9.5C1 10.9053 1.34 12.2304 1.94444 13.3977L1 18L5.60228 17.0556C6.76961 17.66 8.09561 18 9.5 18Z" stroke="white" stroke-width="2" stroke-linecap="round" stroke-linejoin="round"/>
</svg>
