<svg width="19" height="18" viewBox="0 0 19 18" fill="none" xmlns="http://www.w3.org/2000/svg">
<path d="M12.2844 6.94636L11.275 6.78362C11.2506 6.92571 11.2585 7.07125 11.298 7.21012C11.3375 7.34898 11.4077 7.47785 11.5037 7.58776C11.5998 7.69767 11.7193 7.786 11.8541 7.8466C11.989 7.9072 12.1358 7.93863 12.2844 7.9387V6.94636ZM1.0237 6.94636V5.95402C0.752195 5.95402 0.491814 6.05857 0.299834 6.24467C0.107853 6.43077 0 6.68318 0 6.94636H1.0237ZM3.07109 17.8621H14.7003V15.8774H3.07109V17.8621ZM15.9287 5.95402H12.2844V7.9387H15.9287V5.95402ZM13.2947 7.1091L14.1188 2.31115L12.1001 1.98467L11.275 6.78362L13.2947 7.1091ZM12.1001 1.07671e-07H11.881V1.98467H12.1001V1.07671e-07ZM8.47314 1.76735L5.89854 5.51243L7.60197 6.61393L10.1776 2.86885L8.47314 1.76735ZM5.04682 5.95402H1.0237V7.9387H5.04682V5.95402ZM0 6.94636V14.8851H2.04739V6.94636H0ZM17.712 15.4685L18.9404 9.51453L16.934 9.12553L15.7056 15.0796L17.712 15.4685ZM5.89854 5.51243C5.80503 5.6483 5.67836 5.75969 5.52979 5.83672C5.38121 5.91376 5.21532 5.95405 5.04682 5.95402V7.9387C5.55239 7.93866 6.05014 7.81764 6.49587 7.58636C6.94161 7.35509 7.32155 7.02072 7.60197 6.61293L5.89854 5.51144V5.51243ZM14.1188 2.31115C14.1677 2.02689 14.1522 1.7357 14.0733 1.45785C13.9943 1.18 13.854 0.922136 13.6618 0.702194C13.4697 0.482252 13.2305 0.305506 12.9608 0.184243C12.6911 0.06298 12.3974 0.000108777 12.1001 1.07671e-07V1.98467L14.1188 2.31115ZM15.9287 7.9387C16.0802 7.93864 16.2298 7.97117 16.3668 8.03394C16.5037 8.09672 16.6246 8.18817 16.7206 8.30171C16.8167 8.41524 16.8856 8.54803 16.9223 8.69049C16.959 8.83295 16.9637 8.98154 16.934 9.12553L18.9404 9.51453C19.0295 9.08271 19.0186 8.63713 18.9085 8.20988C18.7985 7.78264 18.592 7.38438 18.3041 7.04382C18.0161 6.70325 17.6538 6.42885 17.2432 6.2404C16.8326 6.05195 16.384 5.95414 15.9297 5.95402V7.9387H15.9287ZM14.7003 17.8621C15.4103 17.8621 16.0985 17.6236 16.6476 17.1873C17.1967 16.7509 17.5728 16.1435 17.712 15.4685L15.7056 15.0796C15.6591 15.3048 15.5335 15.5074 15.3502 15.6529C15.1669 15.7984 14.9372 15.8777 14.7003 15.8774V17.8621ZM11.881 1.07671e-07C11.2068 -0.000152107 10.5429 0.161087 9.94844 0.469401C9.35394 0.777714 8.84717 1.22356 8.47314 1.76735L10.1776 2.86885C10.3645 2.59693 10.6178 2.37395 10.9149 2.21971C11.2121 2.06547 11.5439 1.98473 11.881 1.98467V1.07671e-07ZM3.07109 15.8774C2.79959 15.8774 2.53921 15.7728 2.34723 15.5867C2.15525 15.4006 2.04739 15.1482 2.04739 14.8851H0C0 15.6746 0.32356 16.4318 0.899501 16.9901C1.47544 17.5484 2.25659 17.8621 3.07109 17.8621V15.8774Z" fill="white"/>
</svg>
