<svg width="140" height="139" viewBox="0 0 140 139" fill="none" xmlns="http://www.w3.org/2000/svg">
<path d="M15.5556 139C11.2778 139 7.61446 137.486 4.56557 134.459C1.51668 131.432 -0.00517198 127.798 1.32051e-05 123.556V15.4445C1.32051e-05 11.1972 1.52446 7.56007 4.57335 4.53296C7.62223 1.50585 11.283 -0.00513504 15.5556 1.31107e-05H124.444C128.722 1.31107e-05 132.386 1.51357 135.434 4.54068C138.483 7.56779 140.005 11.2024 140 15.4445V123.556C140 127.803 138.476 131.44 135.427 134.467C132.378 137.494 128.717 139.005 124.444 139H15.5556ZM23.3333 108.111H116.667L87.5 69.5L64.1667 100.389L46.6667 77.2222L23.3333 108.111Z" fill="black"/>
</svg>
